#!OML:ASF X:\für Bonn\!DataBase\2005_08_12_Daniel\c3d\Daniel.ASF
:FULLY-SPECIFIED
:DEGREES
69
root 25.8124 17.6008 0.597672 339.943 83.5599 345.432
lowerback 29.6884 -1.62879 0.41561
upperback 4.24428 -1.60245 -0.130737
thorax -11.632 -0.594968 0.195097
lowerneck 1.22321 3.4176 -7.79718
upperneck 7.88132 4.69595 0.889135
head 2.08452 2.18744 1.67592
rclavicle -1.42131e-014 -1.59028e-015
rhumerus -25.2501 17.9282 -92.7644
rradius 47.2982
rwrist 4.63402
rhand -12.3909 13.9712
rfingers 7.12502
rthumb 13.6803 -15.5591
lclavicle -1.42131e-014 -1.59028e-015
lhumerus 152.597 199.867 260.434
lradius 63.3887
lwrist -3.45971
lhand -2.8999 -1.48392
lfingers 7.12502
lthumb 22.81 27.1874
rfemur -20.7551 -1.27607 26.0254
rtibia 32.2807
rfoot 0.54365 -8.2202
rtoes -3.35942
lfemur -27.19 -10.5748 -13.2385
ltibia 46.5253
lfoot -1.49758 4.43239
ltoes -12.6319
70
root 26.0222 17.3154 0.574058 339.912 83.3683 345.604
lowerback 30.0634 -1.65735 0.547143
upperback 4.30607 -1.58276 -0.121374
thorax -11.7536 -0.586065 0.127364
lowerneck 0.696967 3.37831 -7.53712
upperneck 7.62156 4.6884 0.599925
head 2.10305 2.18548 1.54571
rclavicle -9.93923e-015 -5.56597e-015
rhumerus -24.1868 14.633 -93.004
rradius 44.1308
rwrist 4.37536
rhand -13.0389 14.0037
rfingers 7.12502
rthumb 13.0557 -15.5677
lclavicle -9.93923e-015 -5.56597e-015
lhumerus 152.741 197.806 261.28
lradius 60.2323
lwrist -4.70125
lhand -2.96257 -0.638641
lfingers 7.12502
lthumb 22.7499 28.04
rfemur -21.8387 -1.63066 26.2007
rtibia 36.127
rfoot -3.88817 -6.42363
rtoes -4.38714
lfemur -27.5318 -10.9809 -13.078
ltibia 48.9694
lfoot -6.14406 3.47972
ltoes -16.4427
71
root 26.2233 17.0392 0.540302 340.473 82.9138 346.324
lowerback 30.4862 -1.60628 0.71527
upperback 4.31516 -1.45451 -0.133182
thorax -11.9609 -0.531671 -0.0273987
lowerneck 0.334388 3.28215 -6.98166
upperneck 7.05346 4.6039 -0.164972
head 2.00958 2.1497 1.20136
rclavicle -3.77691e-015 1.98785e-016
rhumerus -23.654 11.0132 -93.0719
rradius 41.4454
rwrist 4.35288
rhand -13.9472 14.1882
rfingers 7.12502
rthumb 12.18 -15.4372
lclavicle -3.77691e-015 1.98785e-016
lhumerus 152.722 195.421 262.101
lradius 57.0487
lwrist -6.10642
lhand -2.97015 0.188725
lfingers 7.12502
lthumb 22.7426 28.8683
rfemur -23.0124 -1.66087 26.3839
rtibia 39.9673
rfoot -8.06489 -5.16842
rtoes -5.08907
lfemur -27.946 -11.1653 -12.9938
ltibia 51.5753
lfoot -10.6893 2.85876
ltoes -19.5594
72
root 26.4138 16.7908 0.499097 341.298 82.2446 347.317
lowerback 31.1845 -1.50599 0.915678
upperback 3.82241 -1.25172 -0.161637
thorax -12.0202 -0.44542 -0.225173
lowerneck 0.018642 3.13621 -6.23324
upperneck 6.43322 4.4627 -1.3087
head 1.90452 2.08448 0.707051
rclavicle 1.15295e-014 1.55052e-014
rhumerus -23.6418 7.3118 -92.9519
rradius 39.121
rwrist 4.35971
rhand -15.1176 14.4633
rfingers 7.12502
rthumb 11.0513 -15.2258
lclavicle 1.15295e-014 1.55052e-014
lhumerus 152.586 192.673 262.858
lradius 53.8787
lwrist -7.5438
lhand -2.83527 1.1125
lfingers 7.12502
lthumb 22.872 29.7761
rfemur -24.2275 -1.30221 26.5168
rtibia 43.707
rfoot -12.0367 -4.36883
rtoes -5.98661
lfemur -28.3226 -11.0447 -12.9866
ltibia 54.1999
lfoot -14.8809 2.45183
ltoes -21.271
73
root 26.6063 16.5832 0.461653 342.147 81.6388 348.288
lowerback 31.6294 -1.41934 1.10181
upperback 3.73125 -1.0762 -0.19391
thorax -12.3129 -0.374477 -0.42189
lowerneck -0.50427 2.99403 -5.51151
upperneck 6.08775 4.34661 -2.43422
head 1.92495 2.02297 0.238962
rclavicle -1.28216e-014 -1.19271e-015
rhumerus -23.9552 3.45003 -92.5917
rradius 37.0095
rwrist 4.45506
rhand -16.4362 14.7599
rfingers 7.12502
rthumb 9.77936 -14.993
lclavicle -1.28216e-014 -1.19271e-015
lhumerus 152.303 189.754 263.44
lradius 50.6793
lwrist -8.86295
lhand -2.76862 1.75116
lfingers 7.12502
lthumb 22.936 30.4069
rfemur -25.4892 -0.806737 26.5498
rtibia 47.3688
rfoot -15.3783 -3.9438
rtoes -6.68415
lfemur -28.6687 -10.8407 -13.0833
ltibia 56.8039
lfoot -18.7105 2.2174
ltoes -21.2824
74
root 26.8071 16.4074 0.430204 342.751 81.1609 348.993
lowerback 31.9141 -1.38003 1.29908
upperback 3.66293 -0.959826 -0.229494
thorax -12.5119 -0.332267 -0.608524
lowerneck -1.1115 2.91418 -4.96154
upperneck 5.95404 4.30759 -3.23054
head 2.01933 1.99464 -0.0910962
rclavicle -1.16786e-014 4.17448e-015
rhumerus -24.6645 -0.183396 -92.0255
rradius 35.1502
rwrist 4.35331
rhand -17.9167 14.9249
rfingers 7.12502
rthumb 8.35072 -14.89
lclavicle -1.16786e-014 4.17448e-015
lhumerus 151.712 186.792 263.784
lradius 47.2942
lwrist -9.88063
lhand -3.04698 1.89578
lfingers 7.12502
lthumb 22.6689 30.5844
rfemur -26.6208 -0.270495 26.551
rtibia 50.8385
rfoot -17.9014 -3.8768
rtoes -7.32241
lfemur -28.9271 -10.5911 -13.263
ltibia 59.2744
lfoot -22.0437 2.04317
ltoes -20.1606
75
root 27.0105 16.2396 0.396897 343.463 80.7289 349.752
lowerback 32.1089 -1.35556 1.50041
upperback 3.54112 -0.868609 -0.277721
thorax -12.7339 -0.305393 -0.802109
lowerneck -1.42818 2.91861 -4.78522
upperneck 5.78631 4.33435 -3.49511
head 2.03096 2.00602 -0.198288
rclavicle 2.127e-014 1.19271e-015
rhumerus -25.745 -3.60966 -91.2241
rradius 33.4929
rwrist 4.01352
rhand -19.2865 14.8015
rfingers 7.12502
rthumb 7.02863 -15.0618
lclavicle 2.127e-014 1.19271e-015
lhumerus 150.677 183.796 263.88
lradius 43.8005
lwrist -10.433
lhand -3.55828 1.59549
lfingers 7.12502
lthumb 22.1781 30.3433
rfemur -27.7233 0.328504 26.4911
rtibia 54.0983
rfoot -19.8036 -4.00187
rtoes -7.7775
lfemur -29.2018 -10.2882 -13.5415
ltibia 61.6089
lfoot -24.6941 1.9441
ltoes -18.4499
76
root 27.2135 16.1185 0.366608 344.519 80.3062 350.726
lowerback 32.0793 -1.32514 1.65164
upperback 3.39707 -0.796557 -0.324787
thorax -12.8868 -0.288089 -0.961788
lowerneck -1.48245 2.97244 -4.86635
upperneck 5.55296 4.39887 -3.50165
head 1.96236 2.04204 -0.186826
rclavicle -3.24516e-014 -2.5842e-015
rhumerus -27.0124 -6.98252 -90.1225
rradius 31.9174
rwrist 3.84869
rhand -20.4171 14.3973
rfingers 7.12502
rthumb 5.93709 -15.4996
lclavicle -3.24516e-014 -2.5842e-015
lhumerus 149.387 180.566 263.651
lradius 40.3364
lwrist -10.7574
lhand -3.99764 0.859182
lfingers 7.12502
lthumb 21.7562 29.6565
rfemur -28.6788 0.940186 26.3514
rtibia 56.8838
rfoot -21.2342 -4.1662
rtoes -8.32539
lfemur -29.3641 -9.88179 -13.9249
ltibia 63.5177
lfoot -26.728 1.95922
ltoes -17.203
